<?xml version="1.0" encoding="utf-8"?>
<!-- Generator: Adobe Illustrator 19.2.1, SVG Export Plug-In . SVG Version: 6.00 Build 0)  -->
<svg version="1.1" id="Warstwa_1" xmlns="http://www.w3.org/2000/svg" xmlns:xlink="http://www.w3.org/1999/xlink" x="0px" y="0px"
	 viewBox="0 0 204.5 68.3" style="enable-background:new 0 0 204.5 68.3;" xml:space="preserve">
<style type="text/css">
	.st0{fill:#464646;}
	.st1{fill:#7D7D7D;}
	.st2{fill:#D04A02;}
</style>
<path class="st0" d="M6.1,12.6V5.3h16.4v7.3h-3.6v17.9H9.7V12.6H6.1z"/>
<path class="st0" d="M24,8.3c0-0.5,0.1-1,0.3-1.4c0.2-0.4,0.5-0.8,1-1.2c0.4-0.3,0.9-0.6,1.4-0.8c0.6-0.2,1.1-0.3,1.8-0.3
	c0.6,0,1.2,0.1,1.7,0.3c0.5,0.2,1,0.5,1.4,0.8c0.4,0.3,0.7,0.7,1,1.2C32.9,7.4,33,7.8,33,8.3c0,0.5-0.1,1-0.3,1.4
	c-0.2,0.4-0.5,0.8-1,1.2c-0.4,0.3-0.9,0.6-1.4,0.8S29.2,12,28.5,12c-0.6,0-1.2-0.1-1.8-0.3c-0.6-0.2-1-0.5-1.4-0.8
	c-0.4-0.3-0.7-0.7-1-1.2S24,8.9,24,8.3z M24.7,30.5V13.1h7.6v17.4H24.7z"/>
<path class="st0" d="M51.2,14.5c1-0.6,1.9-1,2.9-1.3c1-0.3,2-0.5,3.2-0.5c1.1,0,2.1,0.2,2.8,0.7c0.7,0.5,1.3,1.1,1.8,1.9
	c0.5,0.8,0.8,1.7,1,2.7c0.2,1,0.3,2,0.3,3v9.5h-7.6V21c0-0.3-0.1-0.6-0.4-0.9c-0.3-0.2-0.5-0.4-0.8-0.4c-0.4,0-0.6,0.1-0.9,0.2
	c-0.2,0.1-0.4,0.3-0.5,0.6c-0.1,0.2-0.2,0.5-0.3,0.8c0,0.3-0.1,0.6-0.1,0.8v8.3h-7.6V21c0-0.3-0.1-0.6-0.4-0.9
	c-0.3-0.2-0.5-0.4-0.8-0.4c-0.4,0-0.6,0.1-0.9,0.2c-0.2,0.1-0.4,0.3-0.5,0.6c-0.1,0.2-0.2,0.5-0.3,0.8c0,0.3-0.1,0.6-0.1,0.8v8.3
	h-7.6V13.1h7.6v1.3c0.2-0.1,0.5-0.3,0.7-0.5c0.3-0.2,0.6-0.4,1-0.6c0.4-0.2,0.9-0.3,1.4-0.5c0.6-0.1,1.2-0.2,2-0.2
	c0.9,0,1.7,0.2,2.3,0.5C50.3,13.5,50.8,14,51.2,14.5z"/>
<path class="st0" d="M75.3,25.3c0.8,0,1.7-0.1,2.6-0.4c0.9-0.3,1.6-0.6,2.2-1v5.5c-0.7,0.4-1.7,0.8-2.8,1c-1.1,0.2-2.1,0.4-3.1,0.4
	c-1.4,0-2.6-0.2-3.8-0.7s-2.1-1.1-3-1.9c-0.8-0.8-1.5-1.8-2-2.9c-0.5-1.1-0.7-2.3-0.7-3.5s0.2-2.4,0.7-3.5c0.5-1.1,1.1-2,2-2.9
	c0.8-0.8,1.8-1.5,3-1.9s2.4-0.7,3.8-0.7c1.2,0,2.4,0.2,3.4,0.7c1,0.5,1.9,1.1,2.6,1.9c0.7,0.8,1.3,1.8,1.7,2.9
	c0.4,1.1,0.6,2.3,0.6,3.5V23H71.6c0.2,0.6,0.7,1.2,1.2,1.6C73.4,25,74.2,25.3,75.3,25.3z M76,19.4c-0.1-0.3-0.4-0.6-0.7-0.9
	C75,18.1,74.6,18,74.1,18c-0.7,0-1.2,0.1-1.5,0.4s-0.6,0.6-0.8,1H76z"/>
<path class="st1" d="M19,58.9c-0.6,0.2-1.2,0.4-1.7,0.6c-0.6,0.2-1.2,0.2-1.8,0.2c-1.1,0-2.1-0.1-2.9-0.3c-0.9-0.2-1.6-0.6-2.2-1.1
	c-0.6-0.6-1-1.3-1.3-2.3c-0.3-1-0.4-2.2-0.4-3.8v-3.7H6v-6.2h2.6v-4.6h7.6v4.6H19v6.2h-2.8v3.7c0,0.4,0,0.7,0.1,0.9
	c0.1,0.2,0.3,0.3,0.6,0.3c0.3,0,0.7,0,1.1-0.1c0.4,0,0.8-0.1,1.1-0.2V58.9z"/>
<path class="st1" d="M33.8,49.4C33,49.2,32.5,49,32.1,49c-0.3,0-0.6-0.1-0.8-0.1c-0.5,0-0.9,0.1-1.2,0.2c-0.4,0.1-0.7,0.3-0.9,0.6
	c-0.3,0.2-0.5,0.5-0.6,0.8c-0.1,0.3-0.2,0.6-0.2,0.8v8.3h-7.6V42.3h7.6v1.9c0.2-0.2,0.4-0.4,0.6-0.7c0.3-0.3,0.6-0.5,1-0.7
	c0.4-0.2,0.9-0.4,1.5-0.6s1.3-0.2,2.1-0.2h0.4V49.4z"/>
<path class="st1" d="M45.7,58.4c-0.5,0.6-1.1,0.9-1.9,1.2c-0.7,0.2-1.4,0.3-2.2,0.3c-1,0-2-0.2-2.8-0.7c-0.8-0.5-1.5-1.1-2-1.9
	c-0.6-0.8-1-1.7-1.3-2.8s-0.4-2.3-0.4-3.6c0-1.3,0.1-2.5,0.4-3.6s0.7-2.1,1.3-2.9c0.6-0.8,1.2-1.5,2-1.9c0.8-0.5,1.7-0.7,2.8-0.7
	c0.7,0,1.5,0.1,2.2,0.4c0.7,0.3,1.3,0.7,1.9,1.2v-1.2h7.5v17.4h-7.5V58.4z M45.8,51c0-0.7-0.1-1.3-0.4-1.8c-0.3-0.5-0.8-0.7-1.5-0.7
	c-0.6,0-1.1,0.2-1.4,0.7C42.1,49.7,42,50.3,42,51s0.2,1.3,0.5,1.7c0.3,0.5,0.8,0.7,1.4,0.7c0.7,0,1.2-0.2,1.5-0.7
	C45.6,52.3,45.8,51.7,45.8,51z"/>
<path class="st1" d="M68.6,58.9c-0.6,0.4-1.4,0.6-2.1,0.8C65.6,59.9,64.8,60,64,60c-1.3,0-2.5-0.2-3.7-0.7c-1.1-0.5-2.1-1.1-2.9-1.9
	s-1.5-1.8-1.9-2.9c-0.5-1.1-0.7-2.3-0.7-3.5c0-1.2,0.2-2.4,0.7-3.5c0.5-1.1,1.1-2.1,1.9-2.9c0.8-0.8,1.8-1.5,2.9-1.9
	c1.1-0.5,2.4-0.7,3.7-0.7c1.7,0,3.2,0.4,4.6,1.2v6.3c-0.5-0.3-1.1-0.5-1.6-0.6c-0.5-0.2-1.2-0.3-1.9-0.3c-0.9,0-1.6,0.2-2,0.7
	c-0.4,0.5-0.6,1-0.6,1.7c0,0.7,0.2,1.3,0.6,1.7c0.4,0.5,1.1,0.7,2,0.7c0.7,0,1.4-0.1,2-0.4c0.6-0.2,1.1-0.6,1.5-1.1V58.9z"/>
<path class="st1" d="M84.2,50.7l5.7,9h-8.1l-4-7.1v7.1h-7.6V34.4h7.6v14.5l4-6.7h8.1L84.2,50.7z"/>
<path class="st1" d="M91.2,37.5c0-0.5,0.1-1,0.3-1.4c0.2-0.4,0.5-0.8,1-1.2c0.4-0.3,0.9-0.6,1.4-0.8c0.6-0.2,1.1-0.3,1.8-0.3
	c0.6,0,1.2,0.1,1.7,0.3c0.5,0.2,1,0.5,1.4,0.8c0.4,0.3,0.7,0.7,1,1.2c0.2,0.4,0.3,0.9,0.3,1.4c0,0.5-0.1,1-0.3,1.4
	c-0.2,0.4-0.5,0.8-1,1.2c-0.4,0.3-0.9,0.6-1.4,0.8s-1.1,0.3-1.7,0.3c-0.6,0-1.2-0.1-1.8-0.3c-0.6-0.2-1-0.5-1.4-0.8
	c-0.4-0.3-0.7-0.7-1-1.2S91.2,38,91.2,37.5z M92,59.6V42.3h7.6v17.4H92z"/>
<path class="st1" d="M101.9,59.6V42.3h7.6v1.3c0.2-0.1,0.5-0.3,0.7-0.5c0.3-0.2,0.6-0.4,1-0.6c0.4-0.2,0.9-0.3,1.4-0.5
	c0.6-0.1,1.2-0.2,2-0.2c1.1,0,2,0.2,2.7,0.7c0.7,0.5,1.2,1.1,1.6,1.9c0.4,0.8,0.6,1.7,0.8,2.7c0.1,1,0.2,2,0.2,3v9.5h-7.6v-9.5
	c0-0.3-0.1-0.6-0.4-0.9c-0.3-0.2-0.5-0.4-0.8-0.4c-0.4,0-0.6,0.1-0.9,0.2c-0.2,0.1-0.4,0.3-0.5,0.6c-0.1,0.2-0.2,0.5-0.3,0.8
	c0,0.3-0.1,0.6-0.1,0.8v8.3H101.9z"/>
<path class="st1" d="M140.5,59.1c0,1-0.2,2-0.5,3c-0.4,1-0.9,1.8-1.6,2.5c-0.7,0.7-1.6,1.3-2.7,1.7c-1.1,0.4-2.3,0.6-3.7,0.6
	c-0.9,0-1.7,0-2.3-0.1c-0.6-0.1-1.2-0.2-1.7-0.4c-0.5-0.2-1-0.4-1.4-0.6c-0.4-0.2-0.8-0.4-1.2-0.7v-5.8c0.6,0.4,1.2,0.7,2,1
	c0.8,0.2,1.5,0.4,2.2,0.4c0.2,0,0.6,0,1-0.1c0.4,0,0.8-0.1,1.2-0.2c0.4-0.1,0.7-0.3,1-0.5c0.3-0.2,0.4-0.5,0.4-0.9v-1.7
	c-0.6,0.5-1.2,0.9-1.9,1.1c-0.7,0.3-1.4,0.4-2.2,0.4c-1,0-2-0.2-2.9-0.7s-1.7-1-2.4-1.8c-0.7-0.8-1.2-1.7-1.6-2.7
	c-0.4-1.1-0.6-2.2-0.6-3.4c0-1.2,0.2-2.3,0.6-3.3s0.9-1.9,1.6-2.7c0.7-0.8,1.5-1.3,2.4-1.8s1.9-0.6,2.9-0.6c0.7,0,1.5,0.1,2.2,0.3
	c0.7,0.2,1.3,0.6,1.9,1.1v-1.2h7.5V59.1z M133,50.3c0-0.6-0.2-1.2-0.5-1.6c-0.3-0.4-0.8-0.7-1.5-0.7c-0.6,0-1.1,0.2-1.4,0.7
	c-0.3,0.4-0.5,1-0.5,1.6c0,0.6,0.2,1.2,0.5,1.7c0.3,0.5,0.8,0.7,1.4,0.7c0.7,0,1.2-0.2,1.5-0.7C132.8,51.5,133,51,133,50.3z"/>
<path class="st2" d="M153,59.6V34.4h7.6v25.2H153z"/>
<path class="st2" d="M162.2,51c0-1.2,0.2-2.4,0.7-3.5c0.5-1.1,1.2-2.1,2-2.9c0.9-0.8,1.9-1.5,3-1.9c1.2-0.5,2.4-0.7,3.7-0.7
	c1.3,0,2.6,0.2,3.7,0.7c1.2,0.5,2.2,1.1,3,1.9c0.9,0.8,1.5,1.8,2,2.9c0.5,1.1,0.7,2.3,0.7,3.5c0,1.3-0.2,2.5-0.7,3.5
	c-0.5,1.1-1.2,2.1-2,2.9c-0.9,0.8-1.9,1.5-3,1.9c-1.2,0.5-2.4,0.7-3.7,0.7c-1.3,0-2.6-0.2-3.7-0.7c-1.2-0.5-2.2-1.1-3-1.9
	c-0.9-0.8-1.5-1.8-2-2.9C162.4,53.4,162.2,52.2,162.2,51z M169.8,51c0,0.7,0.1,1.3,0.5,1.7c0.3,0.5,0.8,0.7,1.5,0.7
	c0.6,0,1.1-0.2,1.5-0.7c0.3-0.5,0.5-1,0.5-1.7c0-0.7-0.2-1.2-0.5-1.7c-0.3-0.5-0.8-0.7-1.5-0.7c-0.7,0-1.2,0.2-1.5,0.7
	C169.9,49.7,169.8,50.3,169.8,51z"/>
<path class="st2" d="M201.6,59.1c0,1-0.2,2-0.5,3c-0.4,1-0.9,1.8-1.6,2.5c-0.7,0.7-1.6,1.3-2.7,1.7c-1.1,0.4-2.3,0.6-3.7,0.6
	c-0.9,0-1.7,0-2.3-0.1c-0.6-0.1-1.2-0.2-1.7-0.4c-0.5-0.2-1-0.4-1.4-0.6c-0.4-0.2-0.8-0.4-1.2-0.7v-5.8c0.6,0.4,1.2,0.7,2,1
	c0.8,0.2,1.5,0.4,2.2,0.4c0.2,0,0.6,0,1-0.1c0.4,0,0.8-0.1,1.2-0.2c0.4-0.1,0.7-0.3,1-0.5c0.3-0.2,0.4-0.5,0.4-0.9v-1.7
	c-0.6,0.5-1.2,0.9-1.9,1.1c-0.7,0.3-1.4,0.4-2.2,0.4c-1,0-2-0.2-2.9-0.7s-1.7-1-2.4-1.8c-0.7-0.8-1.2-1.7-1.6-2.7
	c-0.4-1.1-0.6-2.2-0.6-3.4c0-1.2,0.2-2.3,0.6-3.3s0.9-1.9,1.6-2.7c0.7-0.8,1.5-1.3,2.4-1.8s1.9-0.6,2.9-0.6c0.7,0,1.5,0.1,2.2,0.3
	c0.7,0.2,1.3,0.6,1.9,1.1v-1.2h7.5V59.1z M194.1,50.3c0-0.6-0.2-1.2-0.5-1.6c-0.3-0.4-0.8-0.7-1.5-0.7c-0.6,0-1.1,0.2-1.4,0.7
	c-0.3,0.4-0.5,1-0.5,1.6c0,0.6,0.2,1.2,0.5,1.7c0.3,0.5,0.8,0.7,1.4,0.7c0.7,0,1.2-0.2,1.5-0.7C194,51.5,194.1,51,194.1,50.3z"/>
</svg>
